# xmcd
#
# Track frame offsets: 
#        150
#        24245
#        32415
#        50146
#        68895
#        90345
#        123604
#        141248
#        160784
#
# Disc length: 2487 seconds
#
# Revision: 2
# Processed by: cddbd v1.5.2PL0 Copyright (c) Steve Scherf et al.
# Submitted via: ExactAudioCopy v0.95b4
#
DISCID=7109b509
DTITLE=Dragonsclaw - Judgement Day
DYEAR=2013
DGENRE=Power Metal
TTITLE0=Watching My Every Move
TTITLE1=Onset Of War
TTITLE2=Judgement Day
TTITLE3=Bullet
TTITLE4=Fear
TTITLE5=Fly - Defenders Of The Sky Part II 
TTITLE6=Lucifer's Hammer (Warlord Cover) 
TTITLE7=Battle Cry
TTITLE8=Eternally
EXTD=
EXTT0=
EXTT1=
EXTT2=
EXTT3=
EXTT4=
EXTT5=
EXTT6=
EXTT7=
EXTT8=
PLAYORDER=
